<svg fill="gray" stroke="gray" stroke-linecap="round" stroke-width="0" version="1.1" viewBox="0 0 16 16" xmlns="http://www.w3.org/2000/svg">
<path d="m10.5 0c-2.49 3.87e-7-4.5 2.01-4.5 4.5 2e-7 2.49 2.01 4.5 4.5 4.5 2.49 7e-7 4.5-2.01 4.5-4.5s-2.01-4.5-4.5-4.5zm1.5 1.5a1.25 1.25 0 011.25 1.25 1.25 1.25 0 01-1.25 1.25 1.25 1.25 0 01-1.25-1.25 1.25 1.25 0 011.25-1.25z"/>
<rect x="1.5" y="14" width="2.5" height="2"/>
<rect x="3" y="12" width="3" height="2"/>
<rect x="5" y="10" width="3" height="2"/>
<path d="m10 6-8.59 8.59" stroke-width="2.83"/>
<rect x="8" y="6" width="12" height="16" rx="4" ry="4" fill="white"/>
<path d="m10 10s0-2 2.5-2 3.5 2 1.5 3-2 2-2 2" fill="none" stroke="black" stroke-linecap="butt" stroke-width="2"/>
<rect x="11" y="14" width="2" height="2" fill="black" />
</svg>
