<svg fill="gray" stroke="none" viewBox="0 0 16 16" xmlns="http://www.w3.org/2000/svg">
<path style="fill:none;stroke:gray;stroke-width:1;stroke-linecap:round" d="M 6.3444448,10.583689 A 3.5,3.5 0 0 1 4.5169985,7.1554705 3.5,3.5 0 0 1 6.9806786,4.1517193 3.5,3.5 0 0 1 10.700183,5.2731158" />
<circle cx="8" cy="1" r="1" />
<circle cx="1.5" cy="7.5" r="1" />
<circle cx="3.5" cy="2.5" r="1" />
<circle cx="12.5" cy="2.5" r="1" />
<circle cx="3.5" cy="12.5" r="1" />
<path style="fill:gray;stroke:none;" transform="matrix(0.75665226,0,0,0.75665226,5.3220502,5.4069065)" d="m 12.876841,12.939992 a 4.9594828,4.9594828 0 0 1 -2.687668,-1.383543 4.9594828,4.9594828 0 0 1 0,-7.0137676 4.9594828,4.9594828 0 0 1 2.686307,-1.3739622 5.9513794,5.9513794 0 0 0 -7.5959096,0.6726199 5.9513794,5.9513794 0 0 0 0,8.4165209 5.9513794,5.9513794 0 0 0 7.5973136,0.682159 z" />
</svg>
