<svg fill="gray" version="1.1" viewBox="0 0 16 16" xmlns="http://www.w3.org/2000/svg">
    <path d="m8 0c-5 0-8 2-8 8s2 8 8 8 8-2 8-8-3-8-8-8zm0 4c2.63 0 4.4 1.07 5.48 2.15 1.07 1.07 1.49 2.18 1.49 2.18.0978.259-.0336.548-.293.645-.259.0978-.548-.0336-.645-.293 0 0-.333-.896-1.26-1.82-.926-.926-2.4-1.85-4.77-1.85s-3.85.927-4.77 1.85c-.926.926-1.26 1.82-1.26 1.82-.0968.259-.386.391-.645.293-.259-.0968-.391-.386-.293-.645 0 0 .417-1.1 1.49-2.18 1.07-1.07 2.85-2.15 5.48-2.15zm0 2c.299-.000414.595.0437.881.131-.538.244-.882.78-.881 1.37 0 .828.672 1.5 1.5 1.5.59.00145 1.13-.343 1.37-.881.0873.286.131.582.131.881 0 1.66-1.34 3-3 3s-3-1.34-3-3c0-1.66 1.34-3 3-3z"/>
</svg>
